<svg width="26" height="26" viewBox="0 0 26 26" fill="none" xmlns="http://www.w3.org/2000/svg">
<path d="M23.9688 3.04688H23.5625V2.23438C23.5625 1.56234 23.0158 1.01562 22.3438 1.01562C21.6717 1.01562 21.125 1.56234 21.125 2.23438V3.04688H4.875V2.23438C4.875 1.56234 4.32829 1.01562 3.65625 1.01562C2.98421 1.01562 2.4375 1.56234 2.4375 2.23438V3.04688H2.03125C0.911219 3.04688 0 3.95809 0 5.07812V22.9531C0 24.0732 0.911219 24.9844 2.03125 24.9844H23.9688C25.0888 24.9844 26 24.0732 26 22.9531V5.07812C26 3.95809 25.0888 3.04688 23.9688 3.04688ZM21.9375 2.23438C21.9375 2.01038 22.1198 1.82812 22.3438 1.82812C22.5677 1.82812 22.75 2.01038 22.75 2.23438V3.45216C22.75 3.45252 22.7499 3.45282 22.7499 3.45312C22.7499 3.45343 22.75 3.45378 22.75 3.45409V4.67188C22.75 4.89587 22.5677 5.07812 22.3438 5.07812C22.1198 5.07812 21.9375 4.89587 21.9375 4.67188V2.23438ZM3.65625 1.82812C3.88025 1.82812 4.0625 2.01038 4.0625 2.23438V4.67188C4.0625 4.89587 3.88025 5.07812 3.65625 5.07812C3.43225 5.07812 3.25 4.89587 3.25 4.67188V3.45363C3.25 3.45348 3.25 3.45328 3.25 3.45312C3.25 3.45297 3.25 3.45282 3.25 3.45262V2.23438C3.25 2.01038 3.43225 1.82812 3.65625 1.82812ZM23.9688 24.1719H2.03125C1.35921 24.1719 0.8125 23.6252 0.8125 22.9531V7.51562H20.3125C20.5369 7.51562 20.7188 7.33373 20.7188 7.10938C20.7188 6.88502 20.5369 6.70312 20.3125 6.70312H0.8125V5.07812C0.8125 4.40609 1.35921 3.85938 2.03125 3.85938H2.4375V4.67188C2.4375 5.34391 2.98421 5.89062 3.65625 5.89062C4.32829 5.89062 4.875 5.34391 4.875 4.67188V3.85938H21.125V4.67188C21.125 5.34391 21.6717 5.89062 22.3438 5.89062C23.0158 5.89062 23.5625 5.34391 23.5625 4.67188V3.85938H23.9688C24.6408 3.85938 25.1875 4.40609 25.1875 5.07812V6.70312H24.375C24.1506 6.70312 23.9688 6.88502 23.9688 7.10938C23.9688 7.33373 24.1506 7.51562 24.375 7.51562H25.1875V22.9531C25.1875 23.6252 24.6408 24.1719 23.9688 24.1719Z" fill="black"/>
<path d="M22.75 6.70312H21.9375C21.7131 6.70312 21.5312 6.88502 21.5312 7.10938C21.5312 7.33373 21.7131 7.51562 21.9375 7.51562H22.75C22.9744 7.51562 23.1562 7.33373 23.1562 7.10938C23.1562 6.88502 22.9744 6.70312 22.75 6.70312Z" fill="black"/>
<path d="M10.2349 12.8865L12.4745 10.6469C12.484 10.6373 12.4931 10.6273 12.5016 10.6169C12.5053 10.6124 12.5084 10.6078 12.5118 10.6032C12.5164 10.5972 12.5211 10.5913 12.5253 10.5849C12.5291 10.5793 12.5323 10.5735 12.5358 10.5678C12.5391 10.5622 12.5426 10.5567 12.5457 10.5509C12.5489 10.5449 12.5517 10.5387 12.5546 10.5326C12.5573 10.5267 12.5602 10.5209 12.5627 10.5149C12.5652 10.5089 12.5672 10.5028 12.5694 10.4966C12.5717 10.4903 12.5742 10.4839 12.5761 10.4774C12.578 10.4712 12.5794 10.465 12.581 10.4587C12.5826 10.4521 12.5845 10.4456 12.5858 10.4389C12.5873 10.4316 12.5881 10.4241 12.5891 10.4168C12.5899 10.411 12.5911 10.4054 12.5916 10.3996C12.5943 10.3729 12.5943 10.346 12.5916 10.3193C12.5911 10.3135 12.5899 10.3079 12.5891 10.3022C12.5881 10.2948 12.5872 10.2874 12.5858 10.2801C12.5845 10.2734 12.5826 10.2668 12.581 10.2602C12.5794 10.254 12.578 10.2477 12.5761 10.2415C12.5742 10.235 12.5717 10.2287 12.5694 10.2223C12.5672 10.2162 12.5652 10.21 12.5627 10.204C12.5602 10.198 12.5573 10.1922 12.5546 10.1864C12.5517 10.1802 12.5489 10.174 12.5457 10.1681C12.5426 10.1623 12.5391 10.1568 12.5358 10.1512C12.5323 10.1455 12.5291 10.1396 12.5253 10.134C12.5211 10.1277 12.5164 10.1218 12.5118 10.1157C12.5084 10.1112 12.5053 10.1065 12.5016 10.1021C12.4846 10.0813 12.4656 10.0623 12.4448 10.0453C12.4405 10.0418 12.4361 10.0388 12.4317 10.0355C12.4255 10.0307 12.4194 10.026 12.4129 10.0216C12.4074 10.0179 12.4018 10.0148 12.3962 10.0115C12.3904 10.008 12.3848 10.0044 12.3788 10.0012C12.373 9.99809 12.3671 9.9955 12.3612 9.9927C12.3551 9.98981 12.349 9.98671 12.3427 9.98412C12.3371 9.98179 12.3313 9.97991 12.3255 9.97782C12.3188 9.97539 12.3121 9.9728 12.3052 9.97072C12.2995 9.96899 12.2937 9.96772 12.2879 9.96625C12.2808 9.96447 12.2739 9.96249 12.2667 9.96107C12.2601 9.95975 12.2534 9.95899 12.2468 9.95802C12.2403 9.95706 12.2339 9.95584 12.2274 9.95523C12.2156 9.95406 12.2038 9.95355 12.1919 9.95345C12.1904 9.95345 12.1889 9.95325 12.1874 9.95325H7.71884C7.49449 9.95325 7.31259 10.1351 7.31259 10.3595C7.31259 10.5838 7.49449 10.7657 7.71884 10.7657H11.2067L9.05643 12.916C9.04688 12.9255 9.03784 12.9355 9.02926 12.946C9.0256 12.9504 9.0225 12.9551 9.01905 12.9596C9.01448 12.9656 9.00981 12.9716 9.00559 12.9779C9.00184 12.9835 8.99859 12.9894 8.99513 12.9951C8.99178 13.0007 8.98828 13.0062 8.98518 13.012C8.98198 13.0179 8.97929 13.0241 8.97639 13.0302C8.9736 13.0361 8.97066 13.0419 8.96817 13.048C8.96568 13.054 8.9637 13.06 8.96152 13.0661C8.95923 13.0725 8.95674 13.0789 8.95476 13.0854C8.95288 13.0916 8.95151 13.0979 8.94994 13.1041C8.94826 13.1107 8.94643 13.1172 8.94511 13.124C8.94364 13.1313 8.94278 13.1387 8.94176 13.1461C8.94095 13.1518 8.93983 13.1574 8.93927 13.1632C8.93663 13.1899 8.93663 13.2168 8.93927 13.2435C8.93983 13.2493 8.94095 13.2549 8.94176 13.2607C8.94283 13.268 8.94369 13.2755 8.94511 13.2828C8.94643 13.2895 8.94831 13.296 8.94994 13.3026C8.95151 13.3089 8.95288 13.3152 8.95476 13.3213C8.95674 13.3279 8.95923 13.3342 8.96152 13.3406C8.9637 13.3467 8.96568 13.3528 8.96817 13.3588C8.97066 13.3648 8.9736 13.3706 8.97639 13.3766C8.97929 13.3827 8.98198 13.3888 8.98518 13.3948C8.98828 13.4006 8.99178 13.4061 8.99513 13.4117C8.99859 13.4174 9.00184 13.4232 9.00559 13.4288C9.00981 13.4351 9.01448 13.4411 9.01905 13.4471C9.02245 13.4517 9.0256 13.4563 9.02926 13.4608C9.04627 13.4815 9.06531 13.5006 9.08608 13.5176C9.09035 13.5211 9.09482 13.5241 9.09918 13.5274C9.10543 13.5321 9.11152 13.5369 9.11802 13.5412C9.12351 13.5449 9.1292 13.5481 9.13478 13.5514C9.14052 13.5549 9.14616 13.5585 9.1521 13.5616C9.15794 13.5648 9.16398 13.5674 9.16992 13.5702C9.17597 13.573 9.18191 13.576 9.1881 13.5786C9.19394 13.581 9.19988 13.5829 9.20577 13.5851C9.21238 13.5875 9.21888 13.59 9.22563 13.592C9.23157 13.5938 9.23761 13.5951 9.24361 13.5966C9.25041 13.5984 9.25716 13.6003 9.26412 13.6017C9.27118 13.6031 9.27829 13.6039 9.2854 13.6049C9.29139 13.6058 9.29728 13.607 9.30338 13.6075C9.31668 13.6088 9.33009 13.6095 9.34344 13.6095C11.3595 13.6095 12.9997 15.2497 12.9997 17.2658C12.9997 19.2819 11.3595 20.922 9.34344 20.922C8.38068 20.922 7.47184 20.551 6.78437 19.8772C6.62415 19.7202 6.36689 19.7227 6.20988 19.883C6.05281 20.0432 6.0554 20.3004 6.21567 20.4575C7.05589 21.281 8.16669 21.7345 9.34344 21.7345C11.8075 21.7345 13.8122 19.7299 13.8122 17.2658C13.8123 15.1069 12.2733 13.3007 10.2349 12.8865Z" fill="black"/>
<path d="M17.873 10.3195C17.8724 10.3137 17.8713 10.308 17.8705 10.3023C17.8695 10.2949 17.8686 10.2875 17.8672 10.2802C17.8658 10.2735 17.864 10.2669 17.8623 10.2603C17.8608 10.2541 17.8594 10.2478 17.8575 10.2417C17.8555 10.2352 17.8531 10.2289 17.8508 10.2225C17.8486 10.2163 17.8466 10.2102 17.8441 10.2041C17.8416 10.1981 17.8387 10.1923 17.8359 10.1865C17.833 10.1804 17.8303 10.1742 17.8271 10.1682C17.824 10.1624 17.8205 10.1569 17.8171 10.1513C17.8137 10.1456 17.8104 10.1397 17.8067 10.1342C17.8025 10.1279 17.7978 10.1219 17.7932 10.1158C17.7898 10.1113 17.7867 10.1066 17.783 10.1022C17.766 10.0814 17.747 10.0624 17.7262 10.0454C17.7219 10.0419 17.7175 10.0389 17.7131 10.0356C17.7069 10.0309 17.7008 10.0261 17.6943 10.0217C17.6888 10.0181 17.6831 10.015 17.6776 10.0116C17.6718 10.0082 17.6662 10.0045 17.6602 10.0013C17.6544 9.99821 17.6485 9.99562 17.6426 9.99283C17.6365 9.98993 17.6304 9.98683 17.6241 9.98424C17.6184 9.98191 17.6127 9.98003 17.6069 9.97795C17.6002 9.97551 17.5935 9.97292 17.5866 9.97084C17.5809 9.96911 17.5751 9.96784 17.5693 9.96637C17.5622 9.96459 17.5553 9.96261 17.5481 9.96119C17.5415 9.95987 17.5348 9.95911 17.5282 9.95814C17.5217 9.95718 17.5153 9.95596 17.5088 9.95535C17.497 9.95418 17.4851 9.95367 17.4733 9.95357C17.4718 9.95357 17.4703 9.95337 17.4688 9.95337C17.4673 9.95337 17.4658 9.95357 17.4643 9.95357C17.4524 9.95372 17.4406 9.95418 17.4288 9.95535C17.4223 9.95596 17.4159 9.95718 17.4094 9.95814C17.4028 9.95911 17.3961 9.95987 17.3895 9.96119C17.3824 9.96261 17.3754 9.96454 17.3683 9.96637C17.3625 9.96784 17.3567 9.96911 17.351 9.97084C17.3441 9.97292 17.3374 9.97551 17.3307 9.97795C17.3249 9.98003 17.3191 9.98191 17.3134 9.98424C17.3072 9.98683 17.3011 9.98993 17.295 9.99283C17.2891 9.99562 17.2832 9.99821 17.2774 10.0013C17.2715 10.0045 17.2658 10.0081 17.26 10.0116C17.2544 10.015 17.2488 10.0181 17.2433 10.0217C17.2368 10.0261 17.2307 10.0309 17.2245 10.0356C17.2201 10.0389 17.2156 10.0419 17.2114 10.0454C17.2009 10.054 17.1909 10.063 17.1813 10.0726L15.1503 12.1036C14.9916 12.2622 14.9916 12.5194 15.1503 12.6781C15.2296 12.7574 15.3335 12.7971 15.4375 12.7971C15.5415 12.7971 15.6455 12.7574 15.7248 12.6781L17.0625 11.3404V21.3284C17.0625 21.5527 17.2444 21.7346 17.4688 21.7346C17.6931 21.7346 17.875 21.5527 17.875 21.3284V10.3597C17.875 10.3463 17.8743 10.3329 17.873 10.3195Z" fill="black"/>
</svg>
