<svg width="28" height="28" viewBox="0 0 28 28" fill="none" xmlns="http://www.w3.org/2000/svg">
<path d="M20.3569 21.3334L21.1444 20.5512C24.7879 20.6702 24.8439 20.5424 25.004 20.1679L26.005 17.7311L26.0794 17.5001L25.998 17.2979C25.9552 17.1912 25.823 16.8727 23.548 14.7036V13.5626C26.173 11.0338 26.117 10.9043 25.9674 10.5342L24.9708 8.07193C24.8212 7.70268 24.7643 7.55831 21.147 7.65719L20.3595 6.84343C20.4408 5.64477 20.3995 4.44094 20.2362 3.25068L20.1347 3.02056L17.5324 1.88306C17.1492 1.70806 17.0144 1.64506 14.5574 4.32081L13.4532 4.30418C10.9235 1.60393 10.8037 1.65293 10.4248 1.80606L8.0054 2.78431C7.62653 2.93743 7.49265 2.99168 7.63965 6.66668L6.85828 7.44543C3.21653 7.32643 3.16053 7.45593 3.00215 7.82868L1.9994 10.2664L1.92065 10.5001L2.0029 10.7031C2.04578 10.8081 2.17265 11.1231 4.4529 13.2948V14.4323C1.8279 16.9611 1.88478 17.0906 2.03528 17.4616L3.03103 19.9264C3.18328 20.3036 3.23753 20.4374 6.8539 20.3429L7.6414 21.1611C7.55978 22.3579 7.59994 23.5599 7.76128 24.7486L7.86278 24.9804L10.4817 26.1249C10.8623 26.2842 10.9944 26.3411 13.4444 23.6749L14.5487 23.6889C17.0818 26.3927 17.2113 26.3402 17.5814 26.1906L19.9955 25.2149C20.377 25.0636 20.51 25.0102 20.3569 21.3334ZM9.98115 15.6249C9.67583 14.827 9.61297 13.9566 9.80045 13.1231C9.98794 12.2895 10.4174 11.5299 11.035 10.9396C11.6526 10.3492 12.4308 9.95438 13.272 9.80464C14.1131 9.65491 14.9798 9.75694 15.7631 10.0979C16.5465 10.4389 17.2118 11.0036 17.6754 11.7213C18.139 12.4389 18.3803 13.2775 18.3691 14.1318C18.3579 14.9861 18.0946 15.8181 17.6123 16.5233C17.13 17.2285 16.4502 17.7756 15.6582 18.0959C14.5775 18.5185 13.3734 18.4958 12.3094 18.0327C11.2455 17.5696 10.4083 16.7038 9.98115 15.6249Z" fill="black"/>
</svg>
