<svg width="28" height="28" viewBox="0 0 28 28" fill="none" xmlns="http://www.w3.org/2000/svg">
<path d="M14.0001 11.9415C16.0895 11.9415 17.7834 10.2477 17.7834 8.15826C17.7834 6.06883 16.0895 4.375 14.0001 4.375C11.9107 4.375 10.2168 6.06883 10.2168 8.15826C10.2168 10.2477 11.9107 11.9415 14.0001 11.9415ZM14.0001 5.24997C15.6037 5.24997 16.9084 6.5546 16.9084 8.15826C16.9084 9.76186 15.6038 11.0665 14.0001 11.0665C12.3965 11.0665 11.0918 9.76191 11.0918 8.15826C11.0918 6.5546 12.3965 5.24997 14.0001 5.24997Z" fill="black"/>
<path d="M6.3313 16.3895C6.3313 19.9171 6.3313 20.7351 6.3313 20.7351C6.3313 20.7351 13.7954 20.7351 13.8211 20.7351L10.1656 12.8107C10.1657 12.8107 6.3313 12.8619 6.3313 16.3895ZM7.20627 19.8602V16.3895C7.20627 14.4336 8.75952 13.8922 9.63187 13.7424L12.4539 19.8602H7.20627Z" fill="black"/>
<path d="M17.8344 12.8107L14.179 20.7351H21.6688C21.6688 20.7351 21.6688 19.9171 21.6688 16.3895C21.6688 12.8619 17.8344 12.8107 17.8344 12.8107ZM20.7939 19.8602H15.5462L18.3703 13.738C19.2413 13.8813 20.7939 14.4138 20.7939 16.3895V19.8602Z" fill="black"/>
<path d="M13.9999 12.8107H11.3669L13.9999 18.639L16.6329 12.8107H13.9999Z" fill="black"/>
<path d="M14 0C6.26794 0 0 6.268 0 14C0 21.732 6.26794 28 14 28C21.732 28 28 21.732 28 14C28 6.268 21.732 0 14 0ZM14 27.125C6.7628 27.125 0.875029 21.2371 0.875029 14C0.875029 6.7628 6.7628 0.875029 14 0.875029C21.2371 0.875029 27.125 6.76286 27.125 14.0001C27.125 21.2371 21.2371 27.125 14 27.125Z" fill="black"/>
</svg>
